<?xml version="1.0" encoding="UTF-8" standalone="no"?>
<svg width="950px" height="552px" viewBox="0 0 950 552" version="1.1" xmlns="http://www.w3.org/2000/svg" xmlns:xlink="http://www.w3.org/1999/xlink">
    <!-- Generator: Sketch 3.7.1 (28215) - http://www.bohemiancoding.com/sketch -->
    <title>Group</title>
    <desc>Created with Sketch.</desc>
    <defs>
        <path d="M41.6484862,309.489112 C52.393593,300.577838 60.411321,286.469734 67.016017,274.253577 C85.6932783,239.707801 76.1483632,203.692236 85.6932783,178.675315 C113.468673,105.876884 103.557651,123.054086 128.506869,71.1798089 C140.929913,45.349885 151.992397,32.4377599 169.155888,16.542049 C186.319379,0.646338042 186.31991,0.75916221 186.31991,0.75916221 L270.052631,124.546048 C270.052631,124.546048 239.408909,153.559226 232.044056,192.995597 C224.679204,232.431968 226.962479,257.844282 216.000004,277.553291 C202.277623,302.224227 193.584462,352.445472 172.689229,385.360297 C151.793995,418.275123 85.6932804,455.998577 85.6932804,455.998577 L0.80144171,335.566413 C0.80144171,335.566413 22.0077634,325.777816 41.6484862,309.489112 Z" id="path-1"></path>
        <filter x="-50%" y="-50%" width="200%" height="200%" filterUnits="objectBoundingBox" id="filter-3">
            <feGaussianBlur stdDeviation="10" in="SourceGraphic"></feGaussianBlur>
        </filter>
        <filter x="-50%" y="-50%" width="200%" height="200%" filterUnits="objectBoundingBox" id="filter-4">
            <feGaussianBlur stdDeviation="10" in="SourceGraphic"></feGaussianBlur>
        </filter>
        <path d="M0.951023831,125.384082 C0.951023831,125.384082 0.800625668,110.498544 2.64567415,93.7311392 C3.79631468,83.2743646 5.95605885,72.0642534 8.06286858,63.3419752 C8.54494416,61.3461626 9.09438788,58.9248633 9.82503985,56.4716101 C10.3147878,54.8272214 10.8917997,52.9558153 11.3891382,51.162528 C11.6979678,50.0489601 11.9652403,49.100867 12.298543,47.944087 C14.183129,41.4033307 16.5687381,34.3692308 19.1303253,27.6044569 C24.6940483,12.9114851 31.2200749,0.0689764077 31.2200749,0.0689764077 L134.365858,43.1491712 C145.975828,47.9982278 169.195766,57.696341 169.195766,57.696341 L160.403177,74.9195089 C160.403177,74.9195089 158.163039,81.0127669 157.04297,84.0593959 C156.168964,86.4367222 154.420954,91.1913748 154.420954,91.1913748 C154.108833,93.7099041 152.778757,98.2549353 152.778757,98.2549353 C152.778757,98.2549353 151.161844,105.840544 150.718088,109.421248 C150.010619,115.129881 150.030917,126.614973 150.030917,126.614973 L0.951023831,125.384082 Z" id="path-5"></path>
        <filter x="-50%" y="-50%" width="200%" height="200%" filterUnits="objectBoundingBox" id="filter-7">
            <feGaussianBlur stdDeviation="10" in="SourceGraphic"></feGaussianBlur>
        </filter>
        <path d="M0.951023831,125.384082 C0.951023831,125.384082 0.800625668,110.498544 2.64567415,93.7311392 C3.79631468,83.2743646 5.95605885,72.0642534 8.06286858,63.3419752 C8.54494416,61.3461626 9.09438788,58.9248633 9.82503985,56.4716101 C10.3147878,54.8272214 10.8917997,52.9558153 11.3891382,51.162528 C11.6979678,50.0489601 11.9652403,49.100867 12.298543,47.944087 C14.183129,41.4033307 16.5687381,34.3692308 19.1303253,27.6044569 C24.6940483,12.9114851 31.2200749,0.0689764077 31.2200749,0.0689764077 L134.365858,43.1491712 C145.975828,47.9982278 169.195766,57.696341 169.195766,57.696341 L160.403177,74.9195089 C160.403177,74.9195089 158.163039,81.0127669 157.04297,84.0593959 C156.168964,86.4367222 154.420954,91.1913748 154.420954,91.1913748 C154.108833,93.7099041 152.778757,98.2549353 152.778757,98.2549353 C152.778757,98.2549353 151.161844,105.840544 150.718088,109.421248 C150.010619,115.129881 150.030917,126.614973 150.030917,126.614973 L0.951023831,125.384082 Z" id="path-8"></path>
        <filter x="-50%" y="-50%" width="200%" height="200%" filterUnits="objectBoundingBox" id="filter-10">
            <feGaussianBlur stdDeviation="10" in="SourceGraphic"></feGaussianBlur>
        </filter>
        <path d="M0.951023831,125.384082 C0.951023831,125.384082 0.800625668,110.498544 2.64567415,93.7311392 C3.79631468,83.2743646 5.95605885,72.0642534 8.06286858,63.3419752 C8.54494416,61.3461626 9.09438788,58.9248633 9.82503985,56.4716101 C10.3147878,54.8272214 10.8917997,52.9558153 11.3891382,51.162528 C11.6979678,50.0489601 11.9652403,49.100867 12.298543,47.944087 C14.183129,41.4033307 16.5687381,34.3692308 19.1303253,27.6044569 C24.6940483,12.9114851 31.2200749,0.0689764077 31.2200749,0.0689764077 L134.365858,43.1491712 C145.975828,47.9982278 169.195766,57.696341 169.195766,57.696341 L160.403177,74.9195089 C160.403177,74.9195089 158.163039,81.0127669 157.04297,84.0593959 C156.168964,86.4367222 154.420954,91.1913748 154.420954,91.1913748 C154.108833,93.7099041 152.778757,98.2549353 152.778757,98.2549353 C152.778757,98.2549353 151.161844,105.840544 150.718088,109.421248 C150.010619,115.129881 150.030917,126.614973 150.030917,126.614973 L0.951023831,125.384082 Z" id="path-11"></path>
        <filter x="-50%" y="-50%" width="200%" height="200%" filterUnits="objectBoundingBox" id="filter-13">
            <feGaussianBlur stdDeviation="10" in="SourceGraphic"></feGaussianBlur>
        </filter>
    </defs>
    <g id="Page-1" stroke="none" stroke-width="1" fill="none" fill-rule="evenodd">
        <g id="Artboard-1" transform="translate(-163.000000, -124.000000)">
            <g id="Group" transform="translate(163.000000, 124.000000)">
                <g id="8" transform="translate(75.000000, 76.000000)" stroke-width="149" stroke="#D45454">
                    <circle id="Oval-1" cx="200" cy="200" r="200"></circle>
                    <circle id="Oval-1-Copy" cx="600" cy="200" r="200"></circle>
                </g>
                <g id="Overpass-Shadow" transform="translate(320.000000, 58.000000)">
                    <mask id="mask-2" fill="white">
                        <use xlink:href="#path-1"></use>
                    </mask>
                    <g id="Mask"></g>
                    <g mask="url(#mask-2)" stroke="#391A1A" stroke-width="149">
                        <g transform="translate(-245.000000, 18.000000)">
                            <path d="M400,200 C400,89.54305 310.45695,0 200,0 C107.680265,0 29.9701209,62.5510902 6.93899214,147.583845 C2.41427653,164.289454 0,181.862785 0,200" id="Oval-1" filter="url(#filter-3)"></path>
                            <path d="M400,200 C400,310.45695 489.54305,400 600,400" id="Oval-1-Copy" filter="url(#filter-4)"></path>
                        </g>
                    </g>
                </g>
                <g id="Overpass" transform="translate(75.000000, 76.000000)" stroke="#E06161" stroke-width="149">
                    <path d="M400,200 C400,89.54305 310.45695,0 200,0 C107.680265,0 29.9701209,62.5510902 6.93899214,147.583845 C2.41427653,164.289454 0,181.862785 0,200" id="Oval-1"></path>
                    <path d="M400,200 C400,310.45695 489.54305,400 600,400" id="Oval-1-Copy"></path>
                </g>
                <g id="Shadow-+-Ridge" transform="translate(0.000000, 150.000000)">
                    <g id="shadow">
                        <mask id="mask-6" fill="white">
                            <use xlink:href="#path-5"></use>
                        </mask>
                        <g id="Mask"></g>
                        <circle stroke="#979797" fill="#391A1A" filter="url(#filter-7)" mask="url(#mask-6)" cx="75.5" cy="126.5" r="74.5"></circle>
                    </g>
                    <circle id="Ridge" fill="#D45454" cx="75.5" cy="126.5" r="74.5"></circle>
                </g>
                <g id="Shadow-+-Ridge-2" transform="translate(654.500000, 85.000000) scale(1, -1) rotate(-90.000000) translate(-654.500000, -85.000000) translate(569.500000, -15.500000)">
                    <g id="shadow" transform="translate(-0.000000, 0.000000)">
                        <mask id="mask-9" fill="white">
                            <use xlink:href="#path-8"></use>
                        </mask>
                        <g id="Mask"></g>
                        <circle stroke="#979797" fill="#391A1A" filter="url(#filter-10)" mask="url(#mask-9)" cx="75.5" cy="126.5" r="74.5"></circle>
                    </g>
                    <circle id="Ridge" fill="#D45454" cx="75.5" cy="126.5" r="74.5"></circle>
                </g>
                <g id="Shadow-+-Ridge-3" transform="translate(694.500000, 467.000000) scale(-1, 1) rotate(-90.000000) translate(-694.500000, -467.000000) translate(609.500000, 366.500000)">
                    <g id="shadow">
                        <mask id="mask-12" fill="white">
                            <use xlink:href="#path-11"></use>
                        </mask>
                        <g id="Mask"></g>
                        <circle stroke="#979797" fill="#391A1A" filter="url(#filter-13)" mask="url(#mask-12)" cx="75.5" cy="126.5" r="74.5"></circle>
                    </g>
                    <circle id="Ridge" fill="#E06161" cx="75.5" cy="126.5" r="74.5"></circle>
                </g>
            </g>
        </g>
    </g>
</svg>